<svg xmlns="http://www.w3.org/2000/svg"
 width="512.000000pt" height="512.000000pt" viewBox="0 0 512.000000 512.000000"
 preserveAspectRatio="xMidYMid meet">
<metadata>
Created by potrace 1.14, written by Peter Selinger 2001-2017
</metadata>
<g transform="translate(0.000000,512.000000) scale(0.100000,-0.100000)"
fill="#000000" stroke="none">
<path d="M1509 4249 c-10 -10 -19 -23 -19 -29 0 -5 -20 -10 -43 -10 -31 0 -49
6 -62 20 -24 26 -58 25 -133 -4 -88 -35 -127 -60 -205 -135 -202 -194 -251
-483 -125 -740 34 -70 61 -105 158 -205 110 -114 121 -130 192 -266 65 -125
491 -959 676 -1326 34 -66 70 -129 81 -138 26 -23 52 -17 71 16 14 27 11 34
-142 335 l-157 308 616 618 c338 339 618 617 621 617 5 0 722 -368 903 -464
103 -55 122 -79 127 -162 7 -107 -44 -169 -153 -189 -87 -15 -175 -90 -195
-165 -5 -19 -14 -56 -21 -83 -14 -57 -62 -103 -116 -112 -134 -22 -221 -100
-239 -215 -14 -92 -55 -136 -143 -155 -123 -25 -198 -98 -222 -214 -20 -100
-58 -139 -154 -156 -114 -20 -191 -101 -215 -224 -5 -28 -17 -62 -26 -75 -39
-61 -167 -86 -232 -46 -36 22 -46 37 -117 174 -52 100 -77 122 -114 99 -32
-20 -24 -60 39 -182 69 -136 112 -182 194 -206 167 -50 325 42 357 208 17 85
60 132 137 148 129 26 212 105 229 217 13 86 77 152 145 152 73 0 189 96 208
172 6 21 15 57 21 80 14 53 54 93 110 108 164 44 222 98 249 235 19 91 54 120
180 149 39 8 113 61 138 100 76 113 59 287 -37 368 -20 17 -480 260 -1021 540
l-985 509 -110 109 c-125 123 -192 169 -297 204 -109 35 -145 39 -169 15z m46
-160 c57 -18 186 -86 184 -98 0 -3 -150 -158 -333 -345 l-332 -338 -33 50
c-69 108 -98 267 -71 391 28 130 134 282 232 332 81 42 234 45 353 8z m606
-326 c49 -26 89 -51 89 -56 0 -13 -82 -97 -95 -97 -8 0 -50 25 -94 56 l-81 55
36 45 c20 24 41 44 47 44 5 0 50 -21 98 -47z m604 -313 c88 -46 162 -85 164
-87 8 -6 -163 -173 -174 -169 -9 3 -492 332 -504 343 -3 2 22 30 54 63 l58 59
121 -63 c67 -35 193 -101 281 -146z m-779 134 c46 -31 84 -58 84 -61 0 -8 -93
-103 -101 -103 -12 0 -149 123 -149 134 0 9 69 86 78 86 1 0 41 -25 88 -56z
m-177 -175 c39 -33 71 -66 71 -72 0 -15 -91 -107 -105 -106 -5 0 -39 34 -74
76 l-64 75 44 44 c24 24 46 44 51 44 4 0 39 -27 77 -61z m614 -120 c139 -95
254 -174 256 -176 6 -4 -161 -173 -171 -173 -4 0 -109 91 -233 201 l-227 202
58 58 c32 33 60 59 62 59 2 0 117 -77 255 -171z m-798 -59 c33 -38 61 -75 63
-82 3 -13 -94 -116 -101 -107 -23 26 -107 161 -107 171 0 12 69 89 80 87 3 0
32 -31 65 -69z m567 -159 c117 -103 219 -195 225 -203 10 -12 -4 -30 -76 -102
l-88 -88 -178 204 c-98 111 -190 215 -204 231 l-25 27 59 60 c33 33 62 60 66
60 4 0 103 -85 221 -189z m-737 -27 l58 -85 -49 -50 c-26 -27 -51 -49 -54 -49
-3 0 -28 42 -55 94 l-50 95 40 40 c21 23 42 41 45 41 4 0 33 -39 65 -86z m505
-194 c100 -113 188 -215 197 -227 15 -22 12 -26 -62 -108 -43 -47 -83 -84 -89
-82 -12 4 -331 471 -342 501 -4 13 8 32 47 72 30 30 57 53 61 52 4 -2 88 -95
188 -208z m-214 -236 c91 -136 168 -254 171 -263 2 -10 -25 -45 -76 -95 -44
-44 -82 -78 -84 -75 -2 2 -46 85 -97 184 -51 99 -117 227 -147 284 l-54 104
52 53 c30 30 57 54 61 54 4 0 82 -111 174 -246z"/>
<path d="M3783 1789 c-12 -4 -25 -20 -29 -35 -6 -24 13 -46 217 -250 229 -229
248 -243 283 -208 34 34 20 54 -191 267 -115 115 -219 214 -233 222 -16 8 -33
10 -47 4z"/>
<path d="M3591 1543 c-51 -35 -40 -50 292 -381 172 -171 320 -312 330 -312 22
0 57 35 57 57 0 20 -614 639 -641 646 -10 3 -27 -2 -38 -10z"/>
<path d="M3336 1364 c-9 -8 -16 -25 -16 -37 0 -26 433 -465 468 -474 28 -7 62
21 62 51 0 30 -447 476 -477 476 -12 0 -29 -7 -37 -16z"/>
</g>
</svg>
